<svg version="1.1" id="Layer_1" xmlns:cc="http://creativecommons.org/ns#" xmlns:dc="http://purl.org/dc/elements/1.1/" xmlns:rdf="http://www.w3.org/1999/02/22-rdf-syntax-ns#" xmlns="http://www.w3.org/2000/svg" xmlns:xlink="http://www.w3.org/1999/xlink" x="0px" y="0px" viewBox="0 0 106.7 106.7" style="enable-background:new 0 0 106.7 106.7;" xml:space="preserve">
 <style type="text/css">
  .st0{fill-rule:evenodd;clip-rule:evenodd;fill:#ED1B23;}
 </style>
 <g transform="matrix(.42289 0 0 .42289 -4.0028 .63752)">
  <path class="st0" d="M31.7-1.5C19.4-1.5,9.5,8.4,9.5,20.8v207.8c0,12.3,9.9,22.3,22.2,22.3h126.9c-0.1-0.2-0.2-0.5-0.3-0.7l-2-3.9
		c-5-9.8-9-31.7-10.9-59.8l-1.2-17.3l-8.3,0.6c-14.4,1-27-2-39.4-9.4c-3.6-2.1-6.7-3.9-7-3.9c-0.8,0-0.6,23,0.4,31.1
		c1.3,11.1,4.9,12.6,9.9,4.3c3.6-6,7.8-11,9.2-11c2.7,0,2.3,3.5-1.5,12.5c-15.6,36.5-23.8,43.7-36.1,31.5c-5.6-5.6-9.1-12.3-12.2-23
		c-2.8-9.5-6.8-29.3-8.2-40.6c-2.3-17.9-1.4-15.8-7.8-18.8c-4.7-2.3-6.1-3.5-7.8-7.1c-2.7-5.7-3.6-11.6-1.8-12.8
		c0.7-0.5,4.6-1.3,8.7-1.8l7.3-1l0.8-5.9c3.2-24.4,11-61.3,15.4-73.2c3.8-10.1,17.1-20.4,30.3-23.4c11.3-2.6,12.3-1,9.1,13.1
		c-5,22-7.9,48.2-8.4,74.7l-0.3,13.7h43.5l9.6-22.5c5.3-12.4,15.4-36.3,22.6-53.2c8.4-19.8,13.9-31.6,15.6-33.1
		c1.4-1.3,6-4,10.3-6.1l7.8-3.7c1.6-0.8,3.1-1.4,4.5-1.7L31.7-1.5z M215.1-1.5c1.2,0.4,2.3,1.1,3.2,2.2l4.1,2.7
		c5.4,3.6,7.9,7.8,7.9,13.5c0,8.8-29.7,149.1-41.2,194.6c-6.5,25.8-7.2,27.1-15.4,28.4c-4.9,0.8-9.8,4.8-9.8,8.1
		c-0.1,1-0.2,1.9-0.4,2.8h75.9c12.3,0,22.2-9.9,22.2-22.3V20.8c0-12.3-9.9-22.3-22.2-22.3L215.1-1.5z">
  </path>
 </g>
</svg>